<svg xmlns="http://www.w3.org/2000/svg" xmlns:xlink="http://www.w3.org/1999/xlink" width="500" zoomAndPan="magnify" viewBox="0 0 375 374.999991" height="500" preserveAspectRatio="xMidYMid meet" version="1.0"><defs><g/><clipPath id="1631a4b850"><path d="M 93.074219 159 L 132 159 L 132 198 L 93.074219 198 Z M 93.074219 159 " clip-rule="nonzero"/></clipPath><clipPath id="985c5d34be"><path d="M 123 145.265625 L 138.074219 145.265625 L 138.074219 162 L 123 162 Z M 123 145.265625 " clip-rule="nonzero"/></clipPath></defs><g fill="#443627" fill-opacity="1"><g transform="translate(7.339499, 217.304225)"><g><path d="M 54.625 -41.75 C 59.082031 -36.894531 61.3125 -30.9375 61.3125 -23.875 C 61.3125 -16.8125 59.082031 -10.832031 54.625 -5.9375 C 50.164062 -1.050781 44.5 1.390625 37.625 1.390625 C 31.300781 1.390625 26.097656 -0.585938 22.015625 -4.546875 L 22.015625 24.15625 L 5.578125 24.15625 L 5.578125 -47.65625 L 21.828125 -47.65625 L 21.828125 -42.265625 L 22.015625 -42.265625 C 26.097656 -46.785156 31.300781 -49.046875 37.625 -49.046875 C 44.5 -49.046875 50.164062 -46.613281 54.625 -41.75 Z M 40.640625 -15.796875 C 42.773438 -17.898438 43.84375 -20.59375 43.84375 -23.875 C 43.84375 -27.15625 42.820312 -29.832031 40.78125 -31.90625 C 38.738281 -33.976562 36.046875 -35.015625 32.703125 -35.015625 C 29.484375 -35.015625 26.832031 -33.960938 24.75 -31.859375 C 22.675781 -29.753906 21.640625 -27.09375 21.640625 -23.875 C 21.640625 -20.59375 22.707031 -17.898438 24.84375 -15.796875 C 26.976562 -13.691406 29.597656 -12.640625 32.703125 -12.640625 C 35.859375 -12.640625 38.503906 -13.691406 40.640625 -15.796875 Z M 40.640625 -15.796875 "/></g></g></g><g fill="#443627" fill-opacity="1"><g transform="translate(63.71879, 217.304225)"><g><path d="M 5.578125 0 L 5.578125 -79.890625 L 22.015625 -79.890625 L 22.015625 0 Z M 5.578125 0 "/></g></g></g><g fill="#443627" fill-opacity="1"><g transform="translate(84.24965, 217.304225)"><g/></g></g><g fill="#443627" fill-opacity="1"><g transform="translate(102.547024, 217.304225)"><g/></g></g><g fill="#443627" fill-opacity="1"><g transform="translate(120.844397, 217.304225)"><g/></g></g><g fill="#443627" fill-opacity="1"><g transform="translate(139.15199, 217.304225)"><g><path d="M 5.578125 0 L 5.578125 -47.65625 L 22.015625 -47.65625 L 22.015625 -42.640625 L 22.203125 -42.640625 C 26.472656 -46.910156 31.023438 -49.046875 35.859375 -49.046875 C 38.210938 -49.046875 40.550781 -48.734375 42.875 -48.109375 C 45.195312 -47.492188 47.425781 -46.535156 49.5625 -45.234375 C 51.695312 -43.929688 53.425781 -42.085938 54.75 -39.703125 C 56.082031 -37.328125 56.75 -34.554688 56.75 -31.390625 L 56.75 0 L 40.3125 0 L 40.3125 -26.9375 C 40.3125 -29.414062 39.519531 -31.582031 37.9375 -33.4375 C 36.363281 -35.300781 34.304688 -36.234375 31.765625 -36.234375 C 29.285156 -36.234375 27.039062 -35.269531 25.03125 -33.34375 C 23.019531 -31.425781 22.015625 -29.289062 22.015625 -26.9375 L 22.015625 0 Z M 5.578125 0 "/></g></g></g><g fill="#443627" fill-opacity="1"><g transform="translate(193.48787, 217.304225)"><g><path d="M 8.828125 -5.890625 C 4.367188 -10.753906 2.140625 -16.71875 2.140625 -23.78125 C 2.140625 -30.84375 4.367188 -36.816406 8.828125 -41.703125 C 13.285156 -46.597656 18.953125 -49.046875 25.828125 -49.046875 C 32.140625 -49.046875 37.335938 -47.0625 41.421875 -43.09375 L 41.421875 -47.65625 L 57.875 -47.65625 L 57.875 0 L 41.609375 0 L 41.609375 -5.390625 L 41.421875 -5.390625 C 37.335938 -0.867188 32.140625 1.390625 25.828125 1.390625 C 18.953125 1.390625 13.285156 -1.035156 8.828125 -5.890625 Z M 22.796875 -31.859375 C 20.660156 -29.753906 19.59375 -27.0625 19.59375 -23.78125 C 19.59375 -20.5 20.613281 -17.820312 22.65625 -15.75 C 24.707031 -13.675781 27.40625 -12.640625 30.75 -12.640625 C 33.96875 -12.640625 36.613281 -13.691406 38.6875 -15.796875 C 40.757812 -17.898438 41.796875 -20.5625 41.796875 -23.78125 C 41.796875 -27.0625 40.726562 -29.753906 38.59375 -31.859375 C 36.457031 -33.960938 33.84375 -35.015625 30.75 -35.015625 C 27.59375 -35.015625 24.941406 -33.960938 22.796875 -31.859375 Z M 22.796875 -31.859375 "/></g></g></g><g fill="#443627" fill-opacity="1"><g transform="translate(249.867162, 217.304225)"><g><path d="M 3.4375 11.703125 L 16.90625 5.109375 C 19.382812 9.191406 23.6875 11.234375 29.8125 11.234375 C 32.664062 11.234375 35.3125 10.320312 37.75 8.5 C 40.195312 6.675781 41.421875 3.875 41.421875 0.09375 L 41.421875 -3.4375 C 38.515625 -0.21875 33.316406 1.390625 25.828125 1.390625 C 18.953125 1.390625 13.285156 -1.035156 8.828125 -5.890625 C 4.367188 -10.753906 2.140625 -16.71875 2.140625 -23.78125 C 2.140625 -30.84375 4.367188 -36.816406 8.828125 -41.703125 C 13.285156 -46.597656 18.953125 -49.046875 25.828125 -49.046875 C 31.953125 -49.046875 37.0625 -47.15625 41.15625 -43.375 L 41.421875 -43.375 L 41.421875 -47.65625 L 57.875 -47.65625 L 57.875 1.296875 C 57.875 9.035156 55.300781 15.007812 50.15625 19.21875 C 45.019531 23.4375 38.238281 25.546875 29.8125 25.546875 C 16.1875 25.546875 7.394531 20.929688 3.4375 11.703125 Z M 22.796875 -31.859375 C 20.660156 -29.753906 19.59375 -27.0625 19.59375 -23.78125 C 19.59375 -20.5 20.613281 -17.820312 22.65625 -15.75 C 24.707031 -13.675781 27.40625 -12.640625 30.75 -12.640625 C 33.96875 -12.640625 36.613281 -13.691406 38.6875 -15.796875 C 40.757812 -17.898438 41.796875 -20.5625 41.796875 -23.78125 C 41.796875 -27.0625 40.726562 -29.753906 38.59375 -31.859375 C 36.457031 -33.960938 33.84375 -35.015625 30.75 -35.015625 C 27.59375 -35.015625 24.941406 -33.960938 22.796875 -31.859375 Z M 22.796875 -31.859375 "/></g></g></g><g fill="#443627" fill-opacity="1"><g transform="translate(306.246454, 217.304225)"><g><path d="M 10.078125 -5.65625 C 4.785156 -10.363281 2.140625 -16.398438 2.140625 -23.765625 C 2.140625 -31.140625 4.894531 -37.195312 10.40625 -41.9375 C 15.914062 -46.675781 22.726562 -49.046875 30.84375 -49.046875 C 38.832031 -49.046875 45.566406 -46.660156 51.046875 -41.890625 C 56.523438 -37.117188 59.265625 -31.078125 59.265625 -23.765625 C 59.265625 -16.460938 56.582031 -10.441406 51.21875 -5.703125 C 45.863281 -0.972656 39.070312 1.390625 30.84375 1.390625 C 22.289062 1.390625 15.367188 -0.957031 10.078125 -5.65625 Z M 22.796875 -31.859375 C 20.660156 -29.753906 19.59375 -27.0625 19.59375 -23.78125 C 19.59375 -20.5 20.613281 -17.820312 22.65625 -15.75 C 24.707031 -13.675781 27.40625 -12.640625 30.75 -12.640625 C 33.96875 -12.640625 36.613281 -13.691406 38.6875 -15.796875 C 40.757812 -17.898438 41.796875 -20.5625 41.796875 -23.78125 C 41.796875 -27.0625 40.726562 -29.753906 38.59375 -31.859375 C 36.457031 -33.960938 33.84375 -35.015625 30.75 -35.015625 C 27.59375 -35.015625 24.941406 -33.960938 22.796875 -31.859375 Z M 22.796875 -31.859375 "/></g></g></g><path fill="#d68b21" d="M 128.289062 185.109375 C 127.804688 186.179688 127.289062 187.191406 126.734375 188.148438 C 126.191406 190.890625 124.78125 193.808594 122.226562 196.738281 C 116.480469 203.339844 106.0625 203.566406 99.375 200.761719 C 105.15625 210.082031 114.914062 217.71875 114.914062 217.71875 C 114.914062 217.71875 136.746094 200.632812 136.746094 183.167969 C 136.746094 178.164062 135.0625 173.554688 132.234375 169.875 C 131.570312 175.675781 130.246094 180.796875 128.289062 185.109375 Z M 128.289062 185.109375 " fill-opacity="1" fill-rule="nonzero"/><g clip-path="url(#1631a4b850)"><path fill="#d68b21" d="M 109.847656 197.859375 C 113.28125 197.765625 116.492188 196.636719 119.324219 194.53125 C 120.84375 193.410156 122.253906 192.007812 123.535156 190.332031 C 124.8125 188.660156 125.964844 186.714844 126.960938 184.507812 C 128.945312 180.128906 130.328125 174.710938 130.929688 168.332031 C 131.199219 165.429688 131.3125 162.324219 131.246094 159.027344 C 130.582031 161.566406 129.847656 164.09375 129.046875 166.527344 C 127.6875 170.632812 126.125 174.480469 124.324219 177.703125 C 121.542969 182.699219 118.199219 186.195312 114.203125 186.839844 C 104.128906 188.453125 103.507812 173.460938 114.269531 172.859375 C 117.5625 172.675781 120.878906 174.085938 123.300781 176.535156 C 124.832031 173.699219 126.296875 170.183594 127.660156 166.070312 C 127.714844 165.902344 127.769531 165.734375 127.824219 165.566406 C 124.210938 162.90625 119.746094 161.339844 114.914062 161.339844 C 102.855469 161.339844 93.085938 171.113281 93.085938 183.167969 C 93.085938 183.324219 93.085938 184.132812 93.132812 184.5625 C 94.136719 193.738281 101.304688 198.101562 109.847656 197.859375 Z M 109.847656 197.859375 " fill-opacity="1" fill-rule="nonzero"/></g><g clip-path="url(#985c5d34be)"><path fill="#d68b21" d="M 131.449219 152.992188 L 133.175781 161.460938 L 138.167969 161.75 L 131.898438 145.265625 L 123.769531 160.917969 L 128.757812 161.203125 Z M 131.449219 152.992188 " fill-opacity="1" fill-rule="nonzero"/></g></svg>